<mxfile host="app.diagrams.net" modified="2022-03-25T13:07:00.017Z" agent="5.0 (Windows NT 10.0; Win64; x64) AppleWebKit/537.36 (KHTML, like Gecko) Chrome/99.0.4844.82 Safari/537.36" etag="_SPt0CJty9SQC_Lm73t0" version="17.2.1" type="github">
  <diagram id="cOkbaZ47pD_OpvFG0WxL" name="Page-1">
    <mxGraphModel dx="2078" dy="1375" grid="0" gridSize="10" guides="1" tooltips="1" connect="1" arrows="1" fold="1" page="0" pageScale="1" pageWidth="827" pageHeight="1169" math="0" shadow="0">
      <root>
        <mxCell id="0" />
        <mxCell id="1" parent="0" />
        <mxCell id="_Uk0CV8JjnMLf5NQTjv--8" value="&lt;div&gt;&lt;/div&gt;" style="rounded=0;whiteSpace=wrap;html=1;align=left;" parent="1" vertex="1">
          <mxGeometry x="945.47" y="-468" width="272" height="319" as="geometry" />
        </mxCell>
        <mxCell id="_Uk0CV8JjnMLf5NQTjv--9" style="edgeStyle=orthogonalEdgeStyle;rounded=0;orthogonalLoop=1;jettySize=auto;html=1;exitX=0.5;exitY=0;exitDx=0;exitDy=0;" parent="1" source="_Uk0CV8JjnMLf5NQTjv--1" target="_Uk0CV8JjnMLf5NQTjv--3" edge="1">
          <mxGeometry relative="1" as="geometry" />
        </mxCell>
        <mxCell id="_Uk0CV8JjnMLf5NQTjv--12" value="" style="edgeStyle=orthogonalEdgeStyle;rounded=0;orthogonalLoop=1;jettySize=auto;html=1;" parent="1" source="_Uk0CV8JjnMLf5NQTjv--1" target="_Uk0CV8JjnMLf5NQTjv--3" edge="1">
          <mxGeometry relative="1" as="geometry" />
        </mxCell>
        <mxCell id="_Uk0CV8JjnMLf5NQTjv--1" value="encoder-embeding" style="rounded=1;whiteSpace=wrap;html=1;" parent="1" vertex="1">
          <mxGeometry x="-268" y="141" width="120" height="60" as="geometry" />
        </mxCell>
        <mxCell id="_Uk0CV8JjnMLf5NQTjv--2" value="decoder-embeding" style="rounded=1;whiteSpace=wrap;html=1;" parent="1" vertex="1">
          <mxGeometry x="1006.47" y="-259" width="120" height="60" as="geometry" />
        </mxCell>
        <mxCell id="_Uk0CV8JjnMLf5NQTjv--10" style="edgeStyle=orthogonalEdgeStyle;rounded=0;orthogonalLoop=1;jettySize=auto;html=1;exitX=0.5;exitY=0;exitDx=0;exitDy=0;" parent="1" source="_Uk0CV8JjnMLf5NQTjv--3" edge="1">
          <mxGeometry relative="1" as="geometry">
            <mxPoint x="-208" y="-73.96000671386719" as="targetPoint" />
          </mxGeometry>
        </mxCell>
        <mxCell id="_Uk0CV8JjnMLf5NQTjv--20" style="rounded=0;orthogonalLoop=1;jettySize=auto;html=1;entryX=0;entryY=0.5;entryDx=0;entryDy=0;" parent="1" source="_Uk0CV8JjnMLf5NQTjv--3" target="_Uk0CV8JjnMLf5NQTjv--17" edge="1">
          <mxGeometry relative="1" as="geometry" />
        </mxCell>
        <mxCell id="_Uk0CV8JjnMLf5NQTjv--21" value="h、c" style="edgeLabel;html=1;align=center;verticalAlign=middle;resizable=0;points=[];" parent="_Uk0CV8JjnMLf5NQTjv--20" vertex="1" connectable="0">
          <mxGeometry x="-0.3592" y="5" relative="1" as="geometry">
            <mxPoint as="offset" />
          </mxGeometry>
        </mxCell>
        <mxCell id="_Uk0CV8JjnMLf5NQTjv--3" value="encoder-LSTM" style="rounded=1;whiteSpace=wrap;html=1;" parent="1" vertex="1">
          <mxGeometry x="-268" y="27" width="120" height="60" as="geometry" />
        </mxCell>
        <mxCell id="_Uk0CV8JjnMLf5NQTjv--4" value="embeding-decoder" style="rounded=0;whiteSpace=wrap;html=1;" parent="1" vertex="1">
          <mxGeometry x="953.47" y="-396" width="120" height="60" as="geometry" />
        </mxCell>
        <mxCell id="_Uk0CV8JjnMLf5NQTjv--5" value="embeding-decoder" style="rounded=0;whiteSpace=wrap;html=1;" parent="1" vertex="1">
          <mxGeometry x="1146.47" y="-246" width="120" height="60" as="geometry" />
        </mxCell>
        <mxCell id="_Uk0CV8JjnMLf5NQTjv--6" value="embeding-decoder" style="rounded=0;whiteSpace=wrap;html=1;" parent="1" vertex="1">
          <mxGeometry x="1252.47" y="-237" width="120" height="60" as="geometry" />
        </mxCell>
        <mxCell id="_Uk0CV8JjnMLf5NQTjv--7" value="decoder-LSTM" style="rounded=1;whiteSpace=wrap;html=1;" parent="1" vertex="1">
          <mxGeometry x="1000.47" y="-394" width="120" height="60" as="geometry" />
        </mxCell>
        <mxCell id="_Uk0CV8JjnMLf5NQTjv--13" value="" style="endArrow=classic;html=1;rounded=0;entryX=0.5;entryY=1;entryDx=0;entryDy=0;" parent="1" target="_Uk0CV8JjnMLf5NQTjv--1" edge="1">
          <mxGeometry width="50" height="50" relative="1" as="geometry">
            <mxPoint x="-208" y="275" as="sourcePoint" />
            <mxPoint x="-180" y="265" as="targetPoint" />
          </mxGeometry>
        </mxCell>
        <mxCell id="_Uk0CV8JjnMLf5NQTjv--14" style="edgeStyle=orthogonalEdgeStyle;rounded=0;orthogonalLoop=1;jettySize=auto;html=1;exitX=0.5;exitY=0;exitDx=0;exitDy=0;" parent="1" source="_Uk0CV8JjnMLf5NQTjv--16" target="_Uk0CV8JjnMLf5NQTjv--17" edge="1">
          <mxGeometry relative="1" as="geometry" />
        </mxCell>
        <mxCell id="_Uk0CV8JjnMLf5NQTjv--15" value="" style="edgeStyle=orthogonalEdgeStyle;rounded=0;orthogonalLoop=1;jettySize=auto;html=1;" parent="1" source="_Uk0CV8JjnMLf5NQTjv--16" target="_Uk0CV8JjnMLf5NQTjv--17" edge="1">
          <mxGeometry relative="1" as="geometry" />
        </mxCell>
        <mxCell id="_Uk0CV8JjnMLf5NQTjv--16" value="encoder-embeding" style="rounded=1;whiteSpace=wrap;html=1;" parent="1" vertex="1">
          <mxGeometry x="-93" y="142" width="120" height="60" as="geometry" />
        </mxCell>
        <mxCell id="_Uk0CV8JjnMLf5NQTjv--22" style="edgeStyle=none;rounded=0;orthogonalLoop=1;jettySize=auto;html=1;" parent="1" source="_Uk0CV8JjnMLf5NQTjv--17" edge="1">
          <mxGeometry relative="1" as="geometry">
            <mxPoint x="-33" y="-79.91759894875918" as="targetPoint" />
          </mxGeometry>
        </mxCell>
        <mxCell id="_Uk0CV8JjnMLf5NQTjv--37" style="edgeStyle=none;rounded=0;orthogonalLoop=1;jettySize=auto;html=1;" parent="1" source="_Uk0CV8JjnMLf5NQTjv--17" target="_Uk0CV8JjnMLf5NQTjv--29" edge="1">
          <mxGeometry relative="1" as="geometry" />
        </mxCell>
        <mxCell id="_Uk0CV8JjnMLf5NQTjv--17" value="encoder-LSTM" style="rounded=1;whiteSpace=wrap;html=1;" parent="1" vertex="1">
          <mxGeometry x="-93" y="28" width="120" height="60" as="geometry" />
        </mxCell>
        <mxCell id="_Uk0CV8JjnMLf5NQTjv--19" value="" style="endArrow=classic;html=1;rounded=0;entryX=0.5;entryY=1;entryDx=0;entryDy=0;" parent="1" target="_Uk0CV8JjnMLf5NQTjv--16" edge="1">
          <mxGeometry width="50" height="50" relative="1" as="geometry">
            <mxPoint x="-33" y="271" as="sourcePoint" />
            <mxPoint x="-5" y="219" as="targetPoint" />
          </mxGeometry>
        </mxCell>
        <mxCell id="_Uk0CV8JjnMLf5NQTjv--23" style="edgeStyle=orthogonalEdgeStyle;rounded=0;orthogonalLoop=1;jettySize=auto;html=1;exitX=0.5;exitY=0;exitDx=0;exitDy=0;" parent="1" source="_Uk0CV8JjnMLf5NQTjv--25" target="_Uk0CV8JjnMLf5NQTjv--29" edge="1">
          <mxGeometry relative="1" as="geometry" />
        </mxCell>
        <mxCell id="_Uk0CV8JjnMLf5NQTjv--24" value="" style="edgeStyle=orthogonalEdgeStyle;rounded=0;orthogonalLoop=1;jettySize=auto;html=1;" parent="1" source="_Uk0CV8JjnMLf5NQTjv--25" target="_Uk0CV8JjnMLf5NQTjv--29" edge="1">
          <mxGeometry relative="1" as="geometry" />
        </mxCell>
        <mxCell id="_Uk0CV8JjnMLf5NQTjv--25" value="encoder-embeding" style="rounded=1;whiteSpace=wrap;html=1;" parent="1" vertex="1">
          <mxGeometry x="90" y="140.92" width="120" height="60" as="geometry" />
        </mxCell>
        <mxCell id="_Uk0CV8JjnMLf5NQTjv--26" style="edgeStyle=orthogonalEdgeStyle;rounded=0;orthogonalLoop=1;jettySize=auto;html=1;exitX=0.5;exitY=0;exitDx=0;exitDy=0;" parent="1" source="_Uk0CV8JjnMLf5NQTjv--29" edge="1">
          <mxGeometry relative="1" as="geometry">
            <mxPoint x="150" y="-74.04000671386719" as="targetPoint" />
          </mxGeometry>
        </mxCell>
        <mxCell id="_Uk0CV8JjnMLf5NQTjv--27" style="rounded=0;orthogonalLoop=1;jettySize=auto;html=1;entryX=0;entryY=0.5;entryDx=0;entryDy=0;" parent="1" source="_Uk0CV8JjnMLf5NQTjv--29" target="_Uk0CV8JjnMLf5NQTjv--35" edge="1">
          <mxGeometry relative="1" as="geometry" />
        </mxCell>
        <mxCell id="_Uk0CV8JjnMLf5NQTjv--28" value="h、c" style="edgeLabel;html=1;align=center;verticalAlign=middle;resizable=0;points=[];" parent="_Uk0CV8JjnMLf5NQTjv--27" vertex="1" connectable="0">
          <mxGeometry x="-0.3592" y="5" relative="1" as="geometry">
            <mxPoint as="offset" />
          </mxGeometry>
        </mxCell>
        <mxCell id="_Uk0CV8JjnMLf5NQTjv--45" value="h、c" style="edgeLabel;html=1;align=center;verticalAlign=middle;resizable=0;points=[];" parent="_Uk0CV8JjnMLf5NQTjv--27" vertex="1" connectable="0">
          <mxGeometry x="-0.3592" y="5" relative="1" as="geometry">
            <mxPoint x="-183" y="-7" as="offset" />
          </mxGeometry>
        </mxCell>
        <mxCell id="_Uk0CV8JjnMLf5NQTjv--47" value="h、c" style="edgeLabel;html=1;align=center;verticalAlign=middle;resizable=0;points=[];" parent="_Uk0CV8JjnMLf5NQTjv--27" vertex="1" connectable="0">
          <mxGeometry x="-0.3592" y="5" relative="1" as="geometry">
            <mxPoint x="195" y="-13" as="offset" />
          </mxGeometry>
        </mxCell>
        <mxCell id="_Uk0CV8JjnMLf5NQTjv--48" style="edgeStyle=orthogonalEdgeStyle;rounded=0;orthogonalLoop=1;jettySize=auto;html=1;exitX=0.5;exitY=0;exitDx=0;exitDy=0;" parent="_Uk0CV8JjnMLf5NQTjv--27" source="_Uk0CV8JjnMLf5NQTjv--50" target="_Uk0CV8JjnMLf5NQTjv--53" edge="1">
          <mxGeometry relative="1" as="geometry" />
        </mxCell>
        <mxCell id="_Uk0CV8JjnMLf5NQTjv--56" value="h、c" style="edgeLabel;html=1;align=center;verticalAlign=middle;resizable=0;points=[];" parent="_Uk0CV8JjnMLf5NQTjv--27" vertex="1" connectable="0">
          <mxGeometry x="-0.3592" y="5" relative="1" as="geometry">
            <mxPoint x="668" y="-181" as="offset" />
          </mxGeometry>
        </mxCell>
        <mxCell id="_Uk0CV8JjnMLf5NQTjv--29" value="encoder-LSTM" style="rounded=1;whiteSpace=wrap;html=1;" parent="1" vertex="1">
          <mxGeometry x="90" y="31" width="120" height="60" as="geometry" />
        </mxCell>
        <mxCell id="_Uk0CV8JjnMLf5NQTjv--30" value="" style="endArrow=classic;html=1;rounded=0;entryX=0.5;entryY=1;entryDx=0;entryDy=0;" parent="1" target="_Uk0CV8JjnMLf5NQTjv--25" edge="1">
          <mxGeometry width="50" height="50" relative="1" as="geometry">
            <mxPoint x="150" y="278" as="sourcePoint" />
            <mxPoint x="178" y="264.92" as="targetPoint" />
          </mxGeometry>
        </mxCell>
        <mxCell id="_Uk0CV8JjnMLf5NQTjv--31" style="edgeStyle=orthogonalEdgeStyle;rounded=0;orthogonalLoop=1;jettySize=auto;html=1;exitX=0.5;exitY=0;exitDx=0;exitDy=0;" parent="1" source="_Uk0CV8JjnMLf5NQTjv--33" target="_Uk0CV8JjnMLf5NQTjv--35" edge="1">
          <mxGeometry relative="1" as="geometry" />
        </mxCell>
        <mxCell id="_Uk0CV8JjnMLf5NQTjv--32" value="" style="edgeStyle=orthogonalEdgeStyle;rounded=0;orthogonalLoop=1;jettySize=auto;html=1;" parent="1" source="_Uk0CV8JjnMLf5NQTjv--33" target="_Uk0CV8JjnMLf5NQTjv--35" edge="1">
          <mxGeometry relative="1" as="geometry" />
        </mxCell>
        <mxCell id="_Uk0CV8JjnMLf5NQTjv--33" value="encoder-embeding" style="rounded=1;whiteSpace=wrap;html=1;" parent="1" vertex="1">
          <mxGeometry x="285" y="144.92" width="120" height="60" as="geometry" />
        </mxCell>
        <mxCell id="_Uk0CV8JjnMLf5NQTjv--34" style="edgeStyle=none;rounded=0;orthogonalLoop=1;jettySize=auto;html=1;" parent="1" source="_Uk0CV8JjnMLf5NQTjv--35" edge="1">
          <mxGeometry relative="1" as="geometry">
            <mxPoint x="345" y="-76.99759894875918" as="targetPoint" />
          </mxGeometry>
        </mxCell>
        <mxCell id="_Uk0CV8JjnMLf5NQTjv--46" style="edgeStyle=none;rounded=0;orthogonalLoop=1;jettySize=auto;html=1;entryX=0;entryY=0.5;entryDx=0;entryDy=0;" parent="1" source="_Uk0CV8JjnMLf5NQTjv--35" target="_Uk0CV8JjnMLf5NQTjv--53" edge="1">
          <mxGeometry relative="1" as="geometry">
            <mxPoint x="476.0118910845588" y="60.91999999999996" as="targetPoint" />
          </mxGeometry>
        </mxCell>
        <mxCell id="_Uk0CV8JjnMLf5NQTjv--35" value="encoder-LSTM" style="rounded=1;whiteSpace=wrap;html=1;" parent="1" vertex="1">
          <mxGeometry x="285" y="30.92" width="120" height="60" as="geometry" />
        </mxCell>
        <mxCell id="_Uk0CV8JjnMLf5NQTjv--36" value="" style="endArrow=classic;html=1;rounded=0;entryX=0.5;entryY=1;entryDx=0;entryDy=0;" parent="1" target="_Uk0CV8JjnMLf5NQTjv--33" edge="1">
          <mxGeometry width="50" height="50" relative="1" as="geometry">
            <mxPoint x="345" y="273.92" as="sourcePoint" />
            <mxPoint x="373" y="221.92" as="targetPoint" />
          </mxGeometry>
        </mxCell>
        <mxCell id="_Uk0CV8JjnMLf5NQTjv--49" value="" style="edgeStyle=orthogonalEdgeStyle;rounded=0;orthogonalLoop=1;jettySize=auto;html=1;" parent="1" source="_Uk0CV8JjnMLf5NQTjv--50" target="_Uk0CV8JjnMLf5NQTjv--53" edge="1">
          <mxGeometry relative="1" as="geometry" />
        </mxCell>
        <mxCell id="_Uk0CV8JjnMLf5NQTjv--50" value="encoder-embeding" style="rounded=1;whiteSpace=wrap;html=1;" parent="1" vertex="1">
          <mxGeometry x="452.00000000000006" y="149" width="120" height="60" as="geometry" />
        </mxCell>
        <mxCell id="_Uk0CV8JjnMLf5NQTjv--51" style="edgeStyle=none;rounded=0;orthogonalLoop=1;jettySize=auto;html=1;" parent="1" source="_Uk0CV8JjnMLf5NQTjv--53" edge="1">
          <mxGeometry relative="1" as="geometry">
            <mxPoint x="512" y="-83" as="targetPoint" />
          </mxGeometry>
        </mxCell>
        <mxCell id="_Uk0CV8JjnMLf5NQTjv--52" style="edgeStyle=none;rounded=0;orthogonalLoop=1;jettySize=auto;html=1;" parent="1" source="_Uk0CV8JjnMLf5NQTjv--53" edge="1">
          <mxGeometry relative="1" as="geometry">
            <mxPoint x="648.4718910845588" y="57.92000000000007" as="targetPoint" />
          </mxGeometry>
        </mxCell>
        <mxCell id="_Uk0CV8JjnMLf5NQTjv--53" value="encoder-LSTM" style="rounded=1;whiteSpace=wrap;html=1;" parent="1" vertex="1">
          <mxGeometry x="452" y="28" width="120" height="60" as="geometry" />
        </mxCell>
        <mxCell id="_Uk0CV8JjnMLf5NQTjv--54" value="" style="endArrow=classic;html=1;rounded=0;entryX=0.5;entryY=1;entryDx=0;entryDy=0;" parent="1" target="_Uk0CV8JjnMLf5NQTjv--50" edge="1">
          <mxGeometry width="50" height="50" relative="1" as="geometry">
            <mxPoint x="512" y="271" as="sourcePoint" />
            <mxPoint x="545.46" y="218.92" as="targetPoint" />
          </mxGeometry>
        </mxCell>
        <mxCell id="_Uk0CV8JjnMLf5NQTjv--57" value="我" style="text;html=1;strokeColor=none;fillColor=none;align=center;verticalAlign=middle;whiteSpace=wrap;rounded=0;" parent="1" vertex="1">
          <mxGeometry x="-238" y="283" width="60" height="30" as="geometry" />
        </mxCell>
        <mxCell id="_Uk0CV8JjnMLf5NQTjv--60" value="爱" style="text;html=1;strokeColor=none;fillColor=none;align=center;verticalAlign=middle;whiteSpace=wrap;rounded=0;" parent="1" vertex="1">
          <mxGeometry x="-55" y="283" width="60" height="30" as="geometry" />
        </mxCell>
        <mxCell id="_Uk0CV8JjnMLf5NQTjv--61" value="莫" style="text;html=1;strokeColor=none;fillColor=none;align=center;verticalAlign=middle;whiteSpace=wrap;rounded=0;" parent="1" vertex="1">
          <mxGeometry x="128" y="283" width="60" height="30" as="geometry" />
        </mxCell>
        <mxCell id="_Uk0CV8JjnMLf5NQTjv--62" value="烦" style="text;html=1;strokeColor=none;fillColor=none;align=center;verticalAlign=middle;whiteSpace=wrap;rounded=0;" parent="1" vertex="1">
          <mxGeometry x="323" y="283" width="60" height="30" as="geometry" />
        </mxCell>
        <mxCell id="_Uk0CV8JjnMLf5NQTjv--63" value="python" style="text;html=1;strokeColor=none;fillColor=none;align=center;verticalAlign=middle;whiteSpace=wrap;rounded=0;" parent="1" vertex="1">
          <mxGeometry x="482" y="287" width="60" height="30" as="geometry" />
        </mxCell>
        <mxCell id="_Uk0CV8JjnMLf5NQTjv--64" style="edgeStyle=none;rounded=0;orthogonalLoop=1;jettySize=auto;html=1;exitX=0.5;exitY=1;exitDx=0;exitDy=0;" parent="1" source="_Uk0CV8JjnMLf5NQTjv--62" target="_Uk0CV8JjnMLf5NQTjv--62" edge="1">
          <mxGeometry relative="1" as="geometry" />
        </mxCell>
        <mxCell id="_Uk0CV8JjnMLf5NQTjv--65" value="整个句子的信息" style="text;html=1;strokeColor=none;fillColor=none;align=center;verticalAlign=middle;whiteSpace=wrap;rounded=0;" parent="1" vertex="1">
          <mxGeometry x="587" y="14" width="60" height="30" as="geometry" />
        </mxCell>
        <mxCell id="_Uk0CV8JjnMLf5NQTjv--66" style="edgeStyle=orthogonalEdgeStyle;rounded=0;orthogonalLoop=1;jettySize=auto;html=1;exitX=0.5;exitY=0;exitDx=0;exitDy=0;" parent="1" source="_Uk0CV8JjnMLf5NQTjv--68" target="_Uk0CV8JjnMLf5NQTjv--70" edge="1">
          <mxGeometry relative="1" as="geometry" />
        </mxCell>
        <mxCell id="_Uk0CV8JjnMLf5NQTjv--67" value="" style="edgeStyle=orthogonalEdgeStyle;rounded=0;orthogonalLoop=1;jettySize=auto;html=1;" parent="1" source="_Uk0CV8JjnMLf5NQTjv--68" target="_Uk0CV8JjnMLf5NQTjv--70" edge="1">
          <mxGeometry relative="1" as="geometry" />
        </mxCell>
        <mxCell id="_Uk0CV8JjnMLf5NQTjv--68" value="encoder-embeding" style="rounded=1;whiteSpace=wrap;html=1;" parent="1" vertex="1">
          <mxGeometry x="-518" y="129" width="120" height="60" as="geometry" />
        </mxCell>
        <mxCell id="_Uk0CV8JjnMLf5NQTjv--73" style="edgeStyle=orthogonalEdgeStyle;rounded=0;orthogonalLoop=1;jettySize=auto;html=1;exitX=0.5;exitY=0;exitDx=0;exitDy=0;entryX=1;entryY=0.5;entryDx=0;entryDy=0;" parent="1" source="_Uk0CV8JjnMLf5NQTjv--70" target="_Uk0CV8JjnMLf5NQTjv--70" edge="1">
          <mxGeometry relative="1" as="geometry">
            <mxPoint x="-314" y="-76" as="targetPoint" />
            <Array as="points">
              <mxPoint x="-458" y="4" />
              <mxPoint x="-378" y="4" />
              <mxPoint x="-378" y="45" />
            </Array>
          </mxGeometry>
        </mxCell>
        <mxCell id="CLlw8UzDEOLSjaysCvxa-12" style="edgeStyle=orthogonalEdgeStyle;rounded=0;orthogonalLoop=1;jettySize=auto;html=1;exitX=0.5;exitY=0;exitDx=0;exitDy=0;" edge="1" parent="1" source="_Uk0CV8JjnMLf5NQTjv--70">
          <mxGeometry relative="1" as="geometry">
            <mxPoint x="-460" y="-68" as="targetPoint" />
          </mxGeometry>
        </mxCell>
        <mxCell id="CLlw8UzDEOLSjaysCvxa-13" value="h、c" style="edgeLabel;html=1;align=center;verticalAlign=middle;resizable=0;points=[];" vertex="1" connectable="0" parent="CLlw8UzDEOLSjaysCvxa-12">
          <mxGeometry x="0.7371" relative="1" as="geometry">
            <mxPoint x="58" y="26" as="offset" />
          </mxGeometry>
        </mxCell>
        <mxCell id="_Uk0CV8JjnMLf5NQTjv--70" value="encoder-LSTM" style="rounded=1;whiteSpace=wrap;html=1;" parent="1" vertex="1">
          <mxGeometry x="-518" y="15" width="120" height="60" as="geometry" />
        </mxCell>
        <mxCell id="_Uk0CV8JjnMLf5NQTjv--71" value="" style="endArrow=classic;html=1;rounded=0;entryX=0.5;entryY=1;entryDx=0;entryDy=0;" parent="1" target="_Uk0CV8JjnMLf5NQTjv--68" edge="1">
          <mxGeometry width="50" height="50" relative="1" as="geometry">
            <mxPoint x="-458" y="263" as="sourcePoint" />
            <mxPoint x="-430" y="253" as="targetPoint" />
          </mxGeometry>
        </mxCell>
        <mxCell id="_Uk0CV8JjnMLf5NQTjv--72" value="“我爱莫烦python”" style="text;html=1;strokeColor=none;fillColor=none;align=center;verticalAlign=middle;whiteSpace=wrap;rounded=0;" parent="1" vertex="1">
          <mxGeometry x="-505" y="266" width="98" height="27" as="geometry" />
        </mxCell>
        <mxCell id="CLlw8UzDEOLSjaysCvxa-8" style="edgeStyle=orthogonalEdgeStyle;rounded=0;orthogonalLoop=1;jettySize=auto;html=1;entryX=0.5;entryY=1;entryDx=0;entryDy=0;" edge="1" parent="1" source="CLlw8UzDEOLSjaysCvxa-2" target="CLlw8UzDEOLSjaysCvxa-3">
          <mxGeometry relative="1" as="geometry" />
        </mxCell>
        <mxCell id="CLlw8UzDEOLSjaysCvxa-2" value="decoder-embeding" style="rounded=1;whiteSpace=wrap;html=1;" vertex="1" parent="1">
          <mxGeometry x="-386" y="-292" width="120" height="60" as="geometry" />
        </mxCell>
        <mxCell id="CLlw8UzDEOLSjaysCvxa-7" style="edgeStyle=orthogonalEdgeStyle;rounded=0;orthogonalLoop=1;jettySize=auto;html=1;" edge="1" parent="1" source="CLlw8UzDEOLSjaysCvxa-3" target="CLlw8UzDEOLSjaysCvxa-6">
          <mxGeometry relative="1" as="geometry" />
        </mxCell>
        <mxCell id="CLlw8UzDEOLSjaysCvxa-3" value="decoder-LSTM" style="rounded=1;whiteSpace=wrap;html=1;" vertex="1" parent="1">
          <mxGeometry x="-388" y="-404" width="124" height="57" as="geometry" />
        </mxCell>
        <mxCell id="CLlw8UzDEOLSjaysCvxa-10" style="rounded=0;orthogonalLoop=1;jettySize=auto;html=1;exitX=0.5;exitY=0;exitDx=0;exitDy=0;" edge="1" parent="1" source="CLlw8UzDEOLSjaysCvxa-6">
          <mxGeometry relative="1" as="geometry">
            <mxPoint x="-326" y="-556" as="targetPoint" />
          </mxGeometry>
        </mxCell>
        <mxCell id="CLlw8UzDEOLSjaysCvxa-6" value="idx2str" style="rounded=1;whiteSpace=wrap;html=1;" vertex="1" parent="1">
          <mxGeometry x="-386" y="-510" width="120" height="60" as="geometry" />
        </mxCell>
        <mxCell id="CLlw8UzDEOLSjaysCvxa-9" style="edgeStyle=orthogonalEdgeStyle;rounded=0;orthogonalLoop=1;jettySize=auto;html=1;exitX=0.5;exitY=0;exitDx=0;exitDy=0;entryX=1;entryY=0.5;entryDx=0;entryDy=0;" edge="1" parent="1" source="CLlw8UzDEOLSjaysCvxa-3" target="CLlw8UzDEOLSjaysCvxa-3">
          <mxGeometry relative="1" as="geometry" />
        </mxCell>
        <mxCell id="CLlw8UzDEOLSjaysCvxa-11" value="时序数据2" style="text;html=1;strokeColor=none;fillColor=none;align=center;verticalAlign=middle;whiteSpace=wrap;rounded=0;" vertex="1" parent="1">
          <mxGeometry x="-645" y="-594" width="136" height="34" as="geometry" />
        </mxCell>
        <mxCell id="CLlw8UzDEOLSjaysCvxa-15" style="edgeStyle=orthogonalEdgeStyle;rounded=0;orthogonalLoop=1;jettySize=auto;html=1;entryX=0.5;entryY=1;entryDx=0;entryDy=0;" edge="1" parent="1" source="CLlw8UzDEOLSjaysCvxa-14" target="CLlw8UzDEOLSjaysCvxa-2">
          <mxGeometry relative="1" as="geometry" />
        </mxCell>
        <mxCell id="CLlw8UzDEOLSjaysCvxa-14" value="input" style="text;html=1;strokeColor=none;fillColor=none;align=center;verticalAlign=middle;whiteSpace=wrap;rounded=0;" vertex="1" parent="1">
          <mxGeometry x="-356" y="-186" width="60" height="30" as="geometry" />
        </mxCell>
        <mxCell id="CLlw8UzDEOLSjaysCvxa-24" style="edgeStyle=orthogonalEdgeStyle;rounded=0;orthogonalLoop=1;jettySize=auto;html=1;entryX=0.5;entryY=1;entryDx=0;entryDy=0;" edge="1" source="CLlw8UzDEOLSjaysCvxa-25" target="CLlw8UzDEOLSjaysCvxa-27" parent="1">
          <mxGeometry relative="1" as="geometry" />
        </mxCell>
        <mxCell id="CLlw8UzDEOLSjaysCvxa-25" value="decoder-embeding" style="rounded=1;whiteSpace=wrap;html=1;" vertex="1" parent="1">
          <mxGeometry x="-50" y="-300" width="120" height="60" as="geometry" />
        </mxCell>
        <mxCell id="CLlw8UzDEOLSjaysCvxa-26" style="edgeStyle=orthogonalEdgeStyle;rounded=0;orthogonalLoop=1;jettySize=auto;html=1;" edge="1" source="CLlw8UzDEOLSjaysCvxa-27" target="CLlw8UzDEOLSjaysCvxa-29" parent="1">
          <mxGeometry relative="1" as="geometry" />
        </mxCell>
        <mxCell id="CLlw8UzDEOLSjaysCvxa-27" value="decoder-LSTM" style="rounded=1;whiteSpace=wrap;html=1;" vertex="1" parent="1">
          <mxGeometry x="-52" y="-412" width="124" height="57" as="geometry" />
        </mxCell>
        <mxCell id="CLlw8UzDEOLSjaysCvxa-28" style="rounded=0;orthogonalLoop=1;jettySize=auto;html=1;exitX=0.5;exitY=0;exitDx=0;exitDy=0;" edge="1" source="CLlw8UzDEOLSjaysCvxa-29" parent="1">
          <mxGeometry relative="1" as="geometry">
            <mxPoint x="10" y="-564" as="targetPoint" />
          </mxGeometry>
        </mxCell>
        <mxCell id="CLlw8UzDEOLSjaysCvxa-29" value="idx2str" style="rounded=1;whiteSpace=wrap;html=1;" vertex="1" parent="1">
          <mxGeometry x="-50" y="-518" width="120" height="60" as="geometry" />
        </mxCell>
        <mxCell id="CLlw8UzDEOLSjaysCvxa-30" style="edgeStyle=orthogonalEdgeStyle;rounded=0;orthogonalLoop=1;jettySize=auto;html=1;exitX=0.5;exitY=0;exitDx=0;exitDy=0;entryX=1;entryY=0.5;entryDx=0;entryDy=0;" edge="1" source="CLlw8UzDEOLSjaysCvxa-27" target="CLlw8UzDEOLSjaysCvxa-27" parent="1">
          <mxGeometry relative="1" as="geometry" />
        </mxCell>
        <mxCell id="CLlw8UzDEOLSjaysCvxa-31" style="edgeStyle=orthogonalEdgeStyle;rounded=0;orthogonalLoop=1;jettySize=auto;html=1;entryX=0.5;entryY=1;entryDx=0;entryDy=0;" edge="1" source="CLlw8UzDEOLSjaysCvxa-32" target="CLlw8UzDEOLSjaysCvxa-25" parent="1">
          <mxGeometry relative="1" as="geometry" />
        </mxCell>
        <mxCell id="CLlw8UzDEOLSjaysCvxa-32" value="&amp;lt;eos&amp;gt;" style="text;html=1;strokeColor=none;fillColor=none;align=center;verticalAlign=middle;whiteSpace=wrap;rounded=0;" vertex="1" parent="1">
          <mxGeometry x="-20" y="-194" width="60" height="30" as="geometry" />
        </mxCell>
        <mxCell id="CLlw8UzDEOLSjaysCvxa-33" value="" style="endArrow=classic;html=1;rounded=0;entryX=0;entryY=0.5;entryDx=0;entryDy=0;" edge="1" parent="1" target="CLlw8UzDEOLSjaysCvxa-3">
          <mxGeometry width="50" height="50" relative="1" as="geometry">
            <mxPoint x="-472" y="-375" as="sourcePoint" />
            <mxPoint x="-426" y="-394" as="targetPoint" />
          </mxGeometry>
        </mxCell>
        <mxCell id="CLlw8UzDEOLSjaysCvxa-34" value="h、c" style="text;html=1;align=center;verticalAlign=middle;resizable=0;points=[];autosize=1;strokeColor=none;fillColor=none;" vertex="1" parent="1">
          <mxGeometry x="-450" y="-396" width="35" height="18" as="geometry" />
        </mxCell>
        <mxCell id="CLlw8UzDEOLSjaysCvxa-41" value="h、c" style="text;html=1;align=center;verticalAlign=middle;resizable=0;points=[];autosize=1;strokeColor=none;fillColor=none;" vertex="1" parent="1">
          <mxGeometry x="-114" y="-399.5" width="35" height="18" as="geometry" />
        </mxCell>
        <mxCell id="CLlw8UzDEOLSjaysCvxa-42" value="" style="endArrow=classic;html=1;rounded=0;entryX=0;entryY=0.5;entryDx=0;entryDy=0;" edge="1" parent="1">
          <mxGeometry width="50" height="50" relative="1" as="geometry">
            <mxPoint x="-136" y="-378.5" as="sourcePoint" />
            <mxPoint x="-52" y="-379" as="targetPoint" />
          </mxGeometry>
        </mxCell>
        <mxCell id="CLlw8UzDEOLSjaysCvxa-45" style="edgeStyle=orthogonalEdgeStyle;rounded=0;orthogonalLoop=1;jettySize=auto;html=1;" edge="1" parent="1" source="CLlw8UzDEOLSjaysCvxa-44">
          <mxGeometry relative="1" as="geometry">
            <mxPoint x="207" y="-191" as="targetPoint" />
            <Array as="points">
              <mxPoint x="122" y="-587" />
              <mxPoint x="122" y="-191" />
            </Array>
          </mxGeometry>
        </mxCell>
        <mxCell id="CLlw8UzDEOLSjaysCvxa-44" value="I" style="text;html=1;strokeColor=none;fillColor=none;align=center;verticalAlign=middle;whiteSpace=wrap;rounded=0;" vertex="1" parent="1">
          <mxGeometry x="-20" y="-602" width="60" height="30" as="geometry" />
        </mxCell>
      </root>
    </mxGraphModel>
  </diagram>
</mxfile>
